/vscmnt/brussel_pixiu_data/_data_brussel/112/vsc11236/PredSimResults/SUBJ09_Falisse2022/weightedWalking/worker_04.mot
version=1
nRows=4
nColumns=124
inDegrees=yes
endheader
                time	         pelvis_tilt	         pelvis_list	     pelvis_rotation	           pelvis_tx	           pelvis_ty	           pelvis_tz	       hip_flexion_r	     hip_adduction_r	      hip_rotation_r	        knee_angle_r	       ankle_angle_r	    subtalar_angle_r	         mtp_angle_r	       hip_flexion_l	     hip_adduction_l	      hip_rotation_l	        knee_angle_l	       ankle_angle_l	    subtalar_angle_l	         mtp_angle_l	    lumbar_extension	      lumbar_bending	     lumbar_rotation	          arm_flex_r	           arm_add_r	           arm_rot_r	        elbow_flex_r	          arm_flex_l	           arm_add_l	           arm_rot_l	        elbow_flex_l	glut_med1_r/activation	glut_med2_r/activation	glut_med3_r/activation	glut_min1_r/activation	glut_min2_r/activation	glut_min3_r/activation	semimem_r/activation	semiten_r/activation	bifemlh_r/activation	bifemsh_r/activation	    sar_r/activation	add_long_r/activation	add_brev_r/activation	add_mag1_r/activation	add_mag2_r/activation	add_mag3_r/activation	    tfl_r/activation	   pect_r/activation	   grac_r/activation	glut_max1_r/activation	glut_max2_r/activation	glut_max3_r/activation	iliacus_r/activation	  psoas_r/activation	quad_fem_r/activation	    gem_r/activation	   peri_r/activation	rect_fem_r/activation	vas_med_r/activation	vas_int_r/activation	vas_lat_r/activation	med_gas_r/activation	lat_gas_r/activation	 soleus_r/activation	tib_post_r/activation	flex_dig_r/activation	flex_hal_r/activation	tib_ant_r/activation	per_brev_r/activation	per_long_r/activation	per_tert_r/activation	ext_dig_r/activation	ext_hal_r/activation	glut_med1_l/activation	glut_med2_l/activation	glut_med3_l/activation	glut_min1_l/activation	glut_min2_l/activation	glut_min3_l/activation	semimem_l/activation	semiten_l/activation	bifemlh_l/activation	bifemsh_l/activation	    sar_l/activation	add_long_l/activation	add_brev_l/activation	add_mag1_l/activation	add_mag2_l/activation	add_mag3_l/activation	    tfl_l/activation	   pect_l/activation	   grac_l/activation	glut_max1_l/activation	glut_max2_l/activation	glut_max3_l/activation	iliacus_l/activation	  psoas_l/activation	quad_fem_l/activation	    gem_l/activation	   peri_l/activation	rect_fem_l/activation	vas_med_l/activation	vas_int_l/activation	vas_lat_l/activation	med_gas_l/activation	lat_gas_l/activation	 soleus_l/activation	tib_post_l/activation	flex_dig_l/activation	flex_hal_l/activation	tib_ant_l/activation	per_brev_l/activation	per_long_l/activation	per_tert_l/activation	ext_dig_l/activation	ext_hal_l/activation	 ercspn_r/activation	 ercspn_l/activation	 intobl_r/activation	 intobl_l/activation	 extobl_r/activation	 extobl_l/activation	
          0.63198669	         -9.32235629	          4.13372904	         -3.43477333	          0.70782509	          0.98551557	          0.00557779	         -9.40345615	         -1.88630158	          9.72353437	         -4.66301708	          7.03961210	         -4.93624927	         28.30893963	         31.06311995	          4.72783671	          1.38532143	         -1.71332553	          9.79463073	         -9.44933702	          0.19101928	          2.36168812	         -2.91810674	          1.97271856	          7.65670788	        -13.47988952	         19.29476121	         66.63772599	        -14.43952949	        -13.44975506	         19.29962581	         21.77893053	          0.13926532	          0.13844734	          0.14187927	          0.14641396	          0.18296852	          0.17265029	          0.01000021	          0.01000022	          0.01000016	          0.05477443	          0.08946907	          0.01690234	          0.01000068	          0.01000083	          0.01000126	          0.01000027	          0.22960606	          0.01008065	          0.02002426	          0.02600899	          0.02149679	          0.01000402	          0.30937947	          0.46482554	          0.03475430	          0.03468037	          0.17558013	          0.04849638	          0.01000080	          0.01000073	          0.01000067	          0.34852329	          0.45447949	          0.32688453	          0.28948989	          0.32457766	          0.32500992	          0.01465694	          0.01000021	          0.01006644	          0.01000023	          0.01000020	          0.01000139	          0.08534578	          0.01210671	          0.01000024	          0.10273702	          0.01210806	          0.01210661	          0.20648365	          0.01210706	          0.01210726	          0.01000014	          0.01323378	          0.03149164	          0.14600028	          0.16416830	          0.13316202	          0.07661890	          0.01000440	          0.01941912	          0.04768558	          0.01000248	          0.01420885	          0.07072931	          0.01618289	          0.01475820	          0.26967201	          0.13977629	          0.01000019	          0.02374275	          0.12413216	          0.13154733	          0.10774699	          0.01000000	          0.01000002	          0.01000000	          0.01210714	          0.01000037	          0.01000042	          0.38841083	          0.18771660	          0.12858592	          0.21862354	          0.41827339	          0.08848975	          0.02253390	          0.05908451	          0.01000004	          0.02600714	          0.01000001	          0.05710972	
          0.64462642	         -9.30255630	          4.37553152	         -3.63902440	          0.72540132	          0.98405601	          0.00531814	         -9.35694021	         -2.09787706	          9.19984644	         -6.64686761	          6.85487041	         -4.45537081	         30.13749553	         30.30034336	          5.10033362	          1.71925575	         -1.81123568	          8.68541769	         -9.91765551	          0.19588511	          2.54489632	         -3.30462689	          2.04002649	          7.32480367	        -13.50310560	         19.26089606	         68.48736770	        -15.45877229	        -13.45421773	         19.23462189	         21.14436777	          0.11503242	          0.11435672	          0.11719146	          0.12093742	          0.15113102	          0.14260818	          0.01000180	          0.01000104	          0.01000089	          0.04524337	          0.07390103	          0.03811589	          0.01000033	          0.01000091	          0.01000294	          0.01000151	          0.18965336	          0.01000118	          0.01654045	          0.02148385	          0.01775660	          0.01000834	          0.25554570	          0.38394328	          0.02870688	          0.02864593	          0.14502819	          0.04005775	          0.01000214	          0.01000194	          0.01000178	          0.28787840	          0.40112189	          0.31752718	          0.27669053	          0.30757638	          0.31537425	          0.01210657	          0.01000024	          0.01000023	          0.01000020	          0.01000006	          0.01000027	          0.07049519	          0.01000013	          0.01000050	          0.08486023	          0.01000123	          0.01000016	          0.17120123	          0.01000048	          0.01000059	          0.01000006	          0.01093114	          0.02601202	          0.12059553	          0.13560258	          0.10999124	          0.06328683	          0.01000028	          0.01604218	          0.03939161	          0.01096713	          0.06626655	          0.05842209	          0.01336702	          0.01219024	          0.24262010	          0.11545451	          0.01000156	          0.01961140	          0.10253262	          0.10865749	          0.08899853	          0.01774475	          0.01774506	          0.01774468	          0.01000046	          0.01465873	          0.01466504	          0.32082512	          0.19563402	          0.13052843	          0.18058196	          0.42002637	          0.07309206	          0.03519873	          0.04880348	          0.01210640	          0.02148176	          0.01000008	          0.04717230	
          0.65726616	         -9.27716546	          4.60944787	         -3.82248964	          0.74320139	          0.98271203	          0.00504030	         -9.18777329	         -2.30049565	          8.64617916	         -8.86562550	          6.54300389	         -3.98746751	         31.91225410	         29.45768224	          5.43720199	          2.06701372	         -2.01528288	          7.67718398	        -10.38341239	          0.18464730	          2.74310361	         -3.68879160	          2.09781153	          6.91368711	        -13.52318951	         19.22018003	         70.22778034	        -16.47094976	        -13.46629645	         19.18457133	         20.61937212	          0.16162579	          0.09445801	          0.09679948	          0.14047297	          0.12483345	          0.11779357	          0.01000119	          0.01000054	          0.01000030	          0.03737078	          0.06104190	          0.03148552	          0.04880504	          0.01000382	          0.01000264	          0.01000071	          0.15665272	          0.03879106	          0.01366307	          0.01774595	          0.01466711	          0.01000065	          0.21107929	          0.31713497	          0.02371174	          0.02366147	          0.11979247	          0.03308748	          0.01000078	          0.01000072	          0.01000071	          0.23778590	          0.33132448	          0.29193624	          0.26808403	          0.30419195	          0.30475684	          0.01000005	          0.01000041	          0.01000032	          0.01000023	          0.01000007	          0.01000033	          0.14846180	          0.16651922	          0.20839651	          0.08964275	          0.14017622	          0.12623694	          0.14240592	          0.04979448	          0.03207132	          0.04931237	          0.01465510	          0.02148583	          0.09961124	          0.11200704	          0.09085224	          0.05227465	          0.01000353	          0.01325173	          0.05204186	          0.09543843	          0.06255091	          0.04825637	          0.01210668	          0.01210666	          0.20040311	          0.09536505	          0.15592668	          0.01619892	          0.08469141	          0.08975051	          0.07351233	          0.01465707	          0.01465733	          0.01465701	          0.01210750	          0.01210814	          0.01211332	          0.47255205	          0.24316112	          0.14669619	          0.35971119	          0.50830749	          0.21587121	          0.04202728	          0.05739201	          0.01000001	          0.01774388	          0.01000003	          0.03896406	
          0.66990589	         -9.24954661	          4.82657249	         -3.98623979	          0.76099165	          0.98163062	          0.00471063	         -8.85697787	         -2.49147433	          8.08489276	        -11.34723926	          6.07580533	         -3.52321065	         33.54807743	         28.54591650	          5.76120044	          2.40324965	         -2.09566378	          6.65125760	        -10.85056623	          0.17229820	          2.93881671	         -4.05624607	          2.14779878	          6.46584409	        -13.54107340	         19.18422394	         71.80192479	        -17.42228384	        -13.47333016	         19.16219757	         20.17069295	          0.13350424	          0.07802179	          0.07995582	          0.12100239	          0.10311179	          0.09729684	          0.01023960	          0.01000230	          0.01000138	          0.03086806	          0.05042033	          0.02600720	          0.09216965	          0.01001952	          0.02377875	          0.05587191	          0.12939435	          0.03204219	          0.01128629	          0.01465863	          0.01211540	          0.01000264	          0.17435029	          0.26195168	          0.01958579	          0.01954433	          0.09894790	          0.02733008	          0.01465093	          0.01464955	          0.01244616	          0.19640979	          0.27367214	          0.25729630	          0.25108594	          0.28165639	          0.28092028	          0.01000005	          0.01000123	          0.01210534	          0.01000032	          0.01000009	          0.01000030	          0.21911445	          0.25932395	          0.32605415	          0.07404814	          0.11922695	          0.19638410	          0.11767772	          0.06596906	          0.04777244	          0.04073177	          0.01210523	          0.01774723	          0.08227835	          0.09251750	          0.07504399	          0.06285173	          0.01000052	          0.01094764	          0.06099158	          0.16148548	          0.10733275	          0.05197237	          0.01000021	          0.01000021	          0.16553247	          0.07877120	          0.19717177	          0.01338023	          0.06995478	          0.07413357	          0.06072091	          0.01210667	          0.01210689	          0.01210661	          0.01000076	          0.01000141	          0.01000564	          0.53932338	          0.23904716	          0.13342458	          0.48024386	          0.54301538	          0.25688331	          0.06113454	          0.06939269	          0.01000002	          0.01465636	          0.01000003	          0.03218409	
